<?xml version="1.0" encoding="UTF-8" standalone="no"?>
<!DOCTYPE svg PUBLIC "-//W3C//DTD SVG 1.1//EN"
 "http://www.w3.org/Graphics/SVG/1.1/DTD/svg11.dtd">
<!-- Generated by graphviz version 2.46.0 (20210119.1425)
 -->
<!-- Title: dependencies Pages: 1 -->
<svg width="845pt" height="211pt"
 viewBox="0.00 0.00 845.00 211.00" xmlns="http://www.w3.org/2000/svg" xmlns:xlink="http://www.w3.org/1999/xlink">
<g id="graph0" class="graph" transform="scale(1 1) rotate(0) translate(4 207)">
<title>dependencies</title>
<polygon fill="white" stroke="transparent" points="-4,4 -4,-207 841,-207 841,4 -4,4"/>
<text text-anchor="start" x="397.51" y="-42.4" font-family="sans-serif" font-weight="bold" font-size="14.00">Legend</text>
<polygon fill="#ffffb3" stroke="transparent" points="184.5,-10 184.5,-30 204.5,-30 204.5,-10 184.5,-10"/>
<text text-anchor="start" x="208.13" y="-15.4" font-family="sans-serif" font-size="14.00"> &#160;Declarations</text>
<polygon fill="#8dd3c7" stroke="transparent" points="297.5,-10 297.5,-30 317.5,-30 317.5,-10 297.5,-10"/>
<text text-anchor="start" x="321.23" y="-15.4" font-family="sans-serif" font-size="14.00"> &#160;Module</text>
<polygon fill="#80b1d3" stroke="transparent" points="383.5,-10 383.5,-30 403.5,-30 403.5,-10 383.5,-10"/>
<text text-anchor="start" x="407.28" y="-15.4" font-family="sans-serif" font-size="14.00"> &#160;Bootstrap</text>
<polygon fill="#fdb462" stroke="transparent" points="480.5,-10 480.5,-30 500.5,-30 500.5,-10 480.5,-10"/>
<text text-anchor="start" x="504.17" y="-15.4" font-family="sans-serif" font-size="14.00"> &#160;Providers</text>
<polygon fill="#fb8072" stroke="transparent" points="576.5,-10 576.5,-30 596.5,-30 596.5,-10 576.5,-10"/>
<text text-anchor="start" x="600.23" y="-15.4" font-family="sans-serif" font-size="14.00"> &#160;Exports</text>
<g id="clust1" class="cluster">
<title>cluster_AppModule</title>
<polygon fill="none" stroke="black" stroke-dasharray="1,5" points="8,-70 8,-195 829,-195 829,-70 8,-70"/>
</g>
<g id="clust3" class="cluster">
<title>cluster_AppModule_imports</title>
<polygon fill="none" stroke="black" points="597,-78 597,-130 821,-130 821,-78 597,-78"/>
</g>
<g id="clust6" class="cluster">
<title>cluster_AppModule_providers</title>
<polygon fill="none" stroke="black" points="16,-78 16,-130 589,-130 589,-78 16,-78"/>
</g>
<!-- ArticlesModule -->
<g id="node1" class="node">
<title>ArticlesModule</title>
<polygon fill="#8dd3c7" stroke="black" points="812.86,-122 809.86,-126 788.86,-126 785.86,-122 709.14,-122 709.14,-86 812.86,-86 812.86,-122"/>
<text text-anchor="middle" x="761" y="-99.8" font-family="Times,serif" font-size="14.00">ArticlesModule</text>
</g>
<!-- AppModule -->
<g id="node3" class="node">
<title>AppModule</title>
<polygon fill="#8dd3c7" stroke="black" points="492.66,-187 489.66,-191 468.66,-191 465.66,-187 409.34,-187 409.34,-151 492.66,-151 492.66,-187"/>
<text text-anchor="middle" x="451" y="-164.8" font-family="Times,serif" font-size="14.00">AppModule</text>
</g>
<!-- ArticlesModule&#45;&gt;AppModule -->
<g id="edge1" class="edge">
<title>ArticlesModule&#45;&gt;AppModule</title>
<path fill="none" stroke="black" d="M761,-122.28C761,-143.32 761,-175 761,-175 761,-175 502.81,-175 502.81,-175"/>
<polygon fill="black" stroke="black" points="502.81,-171.5 492.81,-175 502.81,-178.5 502.81,-171.5"/>
</g>
<!-- UserModule -->
<g id="node2" class="node">
<title>UserModule</title>
<polygon fill="#8dd3c7" stroke="black" points="690.98,-122 687.98,-126 666.98,-126 663.98,-122 605.02,-122 605.02,-86 690.98,-86 690.98,-122"/>
<text text-anchor="middle" x="648" y="-99.8" font-family="Times,serif" font-size="14.00">UserModule</text>
</g>
<!-- UserModule&#45;&gt;AppModule -->
<g id="edge2" class="edge">
<title>UserModule&#45;&gt;AppModule</title>
<path fill="none" stroke="black" d="M648,-122.02C648,-139.37 648,-163 648,-163 648,-163 502.78,-163 502.78,-163"/>
<polygon fill="black" stroke="black" points="502.78,-159.5 492.78,-163 502.78,-166.5 502.78,-159.5"/>
</g>
<!-- AppService -->
<g id="node4" class="node">
<title>AppService</title>
<ellipse fill="#fdb462" stroke="black" cx="524" cy="-104" rx="56.74" ry="18"/>
<text text-anchor="middle" x="524" y="-99.8" font-family="Times,serif" font-size="14.00">AppService</text>
</g>
<!-- AppService&#45;&gt;AppModule -->
<g id="edge3" class="edge">
<title>AppService&#45;&gt;AppModule</title>
<path fill="none" stroke="black" d="M480.1,-115.62C480.1,-115.62 480.1,-140.85 480.1,-140.85"/>
<polygon fill="black" stroke="black" points="476.6,-140.85 480.1,-150.85 483.6,-140.85 476.6,-140.85"/>
</g>
<!-- ArticlesService -->
<g id="node5" class="node">
<title>ArticlesService</title>
<ellipse fill="#fdb462" stroke="black" cx="379" cy="-104" rx="70.62" ry="18"/>
<text text-anchor="middle" x="379" y="-99.8" font-family="Times,serif" font-size="14.00">ArticlesService</text>
</g>
<!-- ArticlesService&#45;&gt;AppModule -->
<g id="edge4" class="edge">
<title>ArticlesService&#45;&gt;AppModule</title>
<path fill="none" stroke="black" d="M429.36,-116.84C429.36,-116.84 429.36,-140.52 429.36,-140.52"/>
<polygon fill="black" stroke="black" points="425.87,-140.52 429.36,-150.52 432.87,-140.52 425.87,-140.52"/>
</g>
<!-- HelperService -->
<g id="node6" class="node">
<title>HelperService</title>
<ellipse fill="#fdb462" stroke="black" cx="224" cy="-104" rx="66.03" ry="18"/>
<text text-anchor="middle" x="224" y="-99.8" font-family="Times,serif" font-size="14.00">HelperService</text>
</g>
<!-- HelperService&#45;&gt;AppModule -->
<g id="edge5" class="edge">
<title>HelperService&#45;&gt;AppModule</title>
<path fill="none" stroke="black" d="M224,-122.02C224,-139.37 224,-163 224,-163 224,-163 399.1,-163 399.1,-163"/>
<polygon fill="black" stroke="black" points="399.1,-166.5 409.1,-163 399.1,-159.5 399.1,-166.5"/>
</g>
<!-- UserService -->
<g id="node7" class="node">
<title>UserService</title>
<ellipse fill="#fdb462" stroke="black" cx="82" cy="-104" rx="58.44" ry="18"/>
<text text-anchor="middle" x="82" y="-99.8" font-family="Times,serif" font-size="14.00">UserService</text>
</g>
<!-- UserService&#45;&gt;AppModule -->
<g id="edge6" class="edge">
<title>UserService&#45;&gt;AppModule</title>
<path fill="none" stroke="black" d="M82,-122.28C82,-143.32 82,-175 82,-175 82,-175 399.03,-175 399.03,-175"/>
<polygon fill="black" stroke="black" points="399.03,-178.5 409.03,-175 399.03,-171.5 399.03,-178.5"/>
</g>
</g>
</svg>
